<?xml version="1.0" encoding="UTF-8" standalone="no"?>
<!DOCTYPE svg PUBLIC "-//W3C//DTD SVG 1.1//EN" "http://www.w3.org/Graphics/SVG/1.1/DTD/svg11.dtd">
<!-- Created with Vectornator (http://vectornator.io/) -->
<svg height="100%" stroke-miterlimit="10" style="fill-rule:nonzero;clip-rule:evenodd;stroke-linecap:round;stroke-linejoin:round;" version="1.1" viewBox="0 0 1136 315.964" width="100%" xml:space="preserve" xmlns="http://www.w3.org/2000/svg" xmlns:vectornator="http://vectornator.io" xmlns:xlink="http://www.w3.org/1999/xlink">
<defs>
<clipPath id="TextBounds">
<rect height="356.291" width="1127.59" x="38.9583" y="17.5071"/>
</clipPath>
<clipPath id="TextBounds_2">
<rect height="1" width="0" x="292.509" y="405.06"/>
</clipPath>
<clipPath id="TextBounds_3">
<rect height="109.464" width="121.149" x="215.13" y="158.488"/>
</clipPath>
<clipPath id="TextBounds_4">
<rect height="101" width="53" x="265.131" y="158.482"/>
</clipPath>
</defs>
<clipPath id="ArtboardFrame">
<rect height="315.964" width="1136" x="0" y="0"/>
</clipPath>
<g clip-path="url(#ArtboardFrame)" id="Layer-1" vectornator:layerName="Layer 1">
<g fill="#3e474a" opacity="1" stroke="none">
<path clip-path="url(#TextBounds)" d="M139.458 189.507C139.458 181.507 144.458 176.907 154.458 175.707C153.458 168.707 150.108 163.207 144.408 159.207C138.708 155.207 131.358 153.207 122.358 153.207C108.558 153.207 97.4583 158.707 89.0583 169.707C80.6583 180.707 76.4583 195.307 76.4583 213.507C76.4583 232.307 80.4083 247.057 88.3083 257.757C96.2083 268.457 107.158 273.807 121.158 273.807C129.958 273.807 137.608 271.307 144.108 266.307C150.608 261.307 155.058 254.407 157.458 245.607C159.458 238.607 160.658 234.607 161.058 233.607C163.258 229.607 166.458 227.607 170.658 227.607C174.058 227.607 176.858 228.707 179.058 230.907C181.258 233.107 182.358 235.907 182.358 239.307C182.358 244.307 180.758 250.307 177.558 257.307C174.358 264.307 170.558 270.107 166.158 274.707C154.358 287.307 139.058 293.607 120.258 293.607C99.8583 293.607 83.4083 286.407 70.9083 272.007C58.4083 257.607 52.1583 238.707 52.1583 215.307C52.1583 190.507 58.6083 170.657 71.5083 155.757C84.4083 140.857 101.558 133.407 122.958 133.407C138.958 133.407 152.258 137.757 162.858 146.457C173.458 155.157 178.758 166.207 178.758 179.607C178.758 187.007 176.708 193.107 172.608 197.907C168.508 202.707 163.258 205.107 156.858 205.107C151.858 205.107 147.708 203.607 144.408 200.607C141.108 197.607 139.458 193.907 139.458 189.507Z"/>
<path clip-path="url(#TextBounds)" d="M274.158 293.607C253.158 293.607 236.358 286.357 223.758 271.857C211.158 257.357 204.858 237.907 204.858 213.507C204.858 189.107 211.208 169.657 223.908 155.157C236.608 140.657 253.658 133.407 275.058 133.407C296.858 133.407 314.058 140.507 326.658 154.707C339.258 168.907 345.558 188.207 345.558 212.607C345.558 237.007 339.058 256.607 326.058 271.407C313.058 286.207 295.758 293.607 274.158 293.607ZM275.658 153.207C261.658 153.207 250.658 158.107 242.658 167.907C234.658 177.707 230.258 191.607 229.458 209.607C229.458 209.607 229.458 210.907 229.458 213.507C229.458 232.307 233.408 247.057 241.308 257.757C249.208 268.457 260.258 273.807 274.458 273.807C289.058 273.807 300.508 268.457 308.808 257.757C317.108 247.057 321.258 232.207 321.258 213.207C321.258 173.207 306.058 153.207 275.658 153.207Z"/>
<path clip-path="url(#TextBounds)" d="M414.858 147.807L414.858 156.207C426.858 141.007 442.858 133.407 462.858 133.407C473.658 133.407 483.858 136.157 493.458 141.657C503.058 147.157 509.558 154.007 512.958 162.207C515.758 169.007 517.158 177.907 517.158 188.907L517.158 245.907C517.158 254.507 517.258 259.607 517.458 261.207C518.458 268.007 521.158 271.407 525.558 271.407C527.358 271.407 529.708 271.157 532.608 270.657C535.508 270.157 537.558 269.907 538.758 269.907C541.358 269.907 543.608 270.807 545.508 272.607C547.408 274.407 548.358 276.607 548.358 279.207C548.358 282.207 547.158 284.707 544.758 286.707C542.358 288.707 539.458 289.707 536.058 289.707C533.258 289.707 528.658 289.307 522.258 288.507C515.858 287.707 509.858 287.307 504.258 287.307C499.058 287.307 494.758 287.507 491.358 287.907C481.358 289.107 476.058 289.707 475.458 289.707C467.458 289.707 463.458 286.207 463.458 279.207C463.458 273.007 466.858 269.907 473.658 269.907C475.258 269.907 477.058 270.107 479.058 270.507C482.858 271.307 485.258 271.707 486.258 271.707C491.058 271.707 493.658 266.207 494.058 255.207L494.658 239.907L494.958 221.607L494.958 198.807C494.958 188.207 494.458 180.907 493.458 176.907C491.658 169.307 487.758 163.407 481.758 159.207C475.158 154.607 467.658 152.307 459.258 152.307C443.258 152.307 431.758 158.007 424.758 169.407C419.958 177.207 417.558 190.507 417.558 209.307L417.558 249.207C417.558 258.007 418.158 264.007 419.358 267.207C420.558 270.407 422.758 272.007 425.958 272.007C427.558 272.007 429.758 271.607 432.558 270.807C435.358 270.007 437.658 269.607 439.458 269.607C445.658 269.607 448.758 273.007 448.758 279.807C448.758 286.407 444.758 289.707 436.758 289.707C435.158 289.707 429.958 289.107 421.158 287.907C416.758 287.307 411.858 287.007 406.458 287.007C402.258 287.007 396.658 287.407 389.658 288.207C380.858 289.207 375.858 289.707 374.658 289.707C366.258 289.707 362.058 286.307 362.058 279.507C362.058 273.107 365.258 269.907 371.658 269.907C372.658 269.907 374.508 270.207 377.208 270.807C379.908 271.407 382.558 271.707 385.158 271.707C391.158 271.707 394.258 265.907 394.458 254.307L395.058 221.007L395.058 184.707L394.458 174.207C394.058 167.407 393.208 162.757 391.908 160.257C390.608 157.757 388.358 156.507 385.158 156.507C383.758 156.507 381.708 156.757 379.008 157.257C376.308 157.757 374.258 158.007 372.858 158.007C365.658 158.007 362.058 154.807 362.058 148.407C362.058 141.807 366.558 138.507 375.558 138.507C376.758 138.507 377.758 138.607 378.558 138.807L389.658 140.007C392.858 140.007 395.658 139.807 398.058 139.407C403.258 139.007 405.958 138.807 406.158 138.807C411.958 138.807 414.858 141.807 414.858 147.807Z"/>
<path clip-path="url(#TextBounds)" d="M647.358 189.507C647.358 181.507 652.358 176.907 662.358 175.707C661.358 168.707 658.008 163.207 652.308 159.207C646.608 155.207 639.258 153.207 630.258 153.207C616.458 153.207 605.358 158.707 596.958 169.707C588.558 180.707 584.358 195.307 584.358 213.507C584.358 232.307 588.308 247.057 596.208 257.757C604.108 268.457 615.058 273.807 629.058 273.807C637.858 273.807 645.508 271.307 652.008 266.307C658.508 261.307 662.958 254.407 665.358 245.607C667.358 238.607 668.558 234.607 668.958 233.607C671.158 229.607 674.358 227.607 678.558 227.607C681.958 227.607 684.758 228.707 686.958 230.907C689.158 233.107 690.258 235.907 690.258 239.307C690.258 244.307 688.658 250.307 685.458 257.307C682.258 264.307 678.458 270.107 674.058 274.707C662.258 287.307 646.958 293.607 628.158 293.607C607.758 293.607 591.308 286.407 578.808 272.007C566.308 257.607 560.058 238.707 560.058 215.307C560.058 190.507 566.508 170.657 579.408 155.757C592.308 140.857 609.458 133.407 630.858 133.407C646.858 133.407 660.158 137.757 670.758 146.457C681.358 155.157 686.658 166.207 686.658 179.607C686.658 187.007 684.608 193.107 680.508 197.907C676.408 202.707 671.158 205.107 664.758 205.107C659.758 205.107 655.608 203.607 652.308 200.607C649.008 197.607 647.358 193.907 647.358 189.507Z"/>
<path clip-path="url(#TextBounds)" d="M849.258 200.307C849.258 207.907 848.758 212.557 847.758 214.257C846.758 215.957 843.858 216.807 839.058 216.807L743.658 216.807C741.058 216.807 739.358 217.157 738.558 217.857C737.758 218.557 737.358 219.707 737.358 221.307C737.358 236.307 741.858 248.807 750.858 258.807C759.858 268.807 771.058 273.807 784.458 273.807C793.258 273.807 801.308 271.407 808.608 266.607C815.908 261.807 820.658 255.707 822.858 248.307L825.558 239.607C826.958 234.807 830.258 232.407 835.458 232.407C842.858 232.407 846.558 236.207 846.558 243.807C846.558 256.807 839.958 268.357 826.758 278.457C813.558 288.557 798.558 293.607 781.758 293.607C760.758 293.607 744.058 286.557 731.658 272.457C719.258 258.357 713.058 239.407 713.058 215.607C713.058 191.207 719.658 171.407 732.858 156.207C746.058 141.007 763.258 133.407 784.458 133.407C803.258 133.407 818.758 139.707 830.958 152.307C843.158 164.907 849.258 180.907 849.258 200.307ZM740.358 192.507C740.358 195.307 742.558 196.707 746.958 196.707L818.658 196.707C822.858 196.707 824.958 195.307 824.958 192.507C824.958 181.907 820.958 172.707 812.958 164.907C804.958 157.107 795.558 153.207 784.758 153.207C773.558 153.207 763.358 157.257 754.158 165.357C744.958 173.457 740.358 182.507 740.358 192.507Z"/>
<path clip-path="url(#TextBounds)" d="M1000.46 292.407C984.058 292.407 973.958 285.307 970.158 271.107C959.958 286.107 943.958 293.607 922.158 293.607C905.958 293.607 893.008 289.607 883.308 281.607C873.608 273.607 868.758 262.907 868.758 249.507C868.758 232.907 875.858 220.707 890.058 212.907C895.458 209.907 900.108 207.957 904.008 207.057C907.908 206.157 915.758 205.007 927.558 203.607C944.358 201.807 955.308 199.307 960.408 196.107C965.508 192.907 968.058 187.007 968.058 178.407C968.058 170.207 965.208 163.757 959.508 159.057C953.808 154.357 945.858 152.007 935.658 152.007C926.658 152.007 918.258 154.507 910.458 159.507C907.458 161.507 905.958 163.607 905.958 165.807C905.958 166.607 906.858 167.607 908.658 168.807C911.458 170.807 912.858 174.207 912.858 179.007C912.858 183.007 911.408 186.307 908.508 188.907C905.608 191.507 901.958 192.807 897.558 192.807C892.358 192.807 888.008 191.007 884.508 187.407C881.008 183.807 879.258 179.407 879.258 174.207C879.258 163.007 884.808 153.407 895.908 145.407C907.008 137.407 920.458 133.407 936.258 133.407C972.658 133.407 990.858 150.907 990.858 185.907L990.858 246.507C990.858 256.107 991.058 261.807 991.458 263.607C992.658 270.607 996.058 274.107 1001.66 274.107C1008.66 274.107 1012.16 267.707 1012.16 254.907L1012.16 240.207C1012.16 233.807 1015.26 230.607 1021.46 230.607C1028.06 230.607 1031.36 235.407 1031.36 245.007L1031.36 246.507L1031.06 263.607C1030.66 282.807 1020.46 292.407 1000.46 292.407ZM967.158 232.707L967.458 211.407C963.058 215.407 958.408 218.207 953.508 219.807C948.608 221.407 939.858 222.807 927.258 224.007C904.458 226.207 893.058 234.607 893.058 249.207C893.058 256.807 895.808 262.807 901.308 267.207C906.808 271.607 914.258 273.807 923.658 273.807C937.058 273.807 947.608 270.157 955.308 262.857C963.008 255.557 966.958 245.507 967.158 232.707Z"/>
<path clip-path="url(#TextBounds)" d="M1087.46 163.107L1087.76 256.407C1087.96 266.607 1090.66 271.707 1095.86 271.707C1097.06 271.707 1099.56 271.207 1103.36 270.207C1105.76 269.807 1107.36 269.607 1108.16 269.607C1114.76 269.607 1118.06 273.007 1118.06 279.807C1118.06 286.407 1113.96 289.707 1105.76 289.707C1102.56 289.707 1097.46 289.307 1090.46 288.507C1083.46 287.707 1078.06 287.307 1074.26 287.307C1071.06 287.307 1066.26 287.707 1059.86 288.507C1053.46 289.307 1048.76 289.707 1045.76 289.707L1044.26 289.707C1035.86 289.707 1031.66 286.107 1031.66 278.907C1031.66 272.707 1035.06 269.607 1041.86 269.607C1042.26 269.607 1042.96 269.607 1043.96 269.607C1045.16 269.807 1046.06 269.907 1046.66 269.907C1051.66 270.707 1054.56 271.107 1055.36 271.107C1058.96 271.107 1061.21 269.557 1062.11 266.457C1063.01 263.357 1063.56 255.307 1063.76 242.307L1064.06 221.307L1064.96 174.807L1064.66 121.407C1064.46 115.407 1064.16 111.407 1063.76 109.407C1062.36 104.807 1059.56 102.507 1055.36 102.507C1054.76 102.507 1052.16 102.907 1047.56 103.707C1045.36 104.107 1043.56 104.307 1042.16 104.307C1035.36 104.307 1031.96 101.107 1031.96 94.7071C1031.96 88.1071 1035.96 84.8071 1043.96 84.8071C1046.16 84.8071 1048.06 84.9071 1049.66 85.1071L1056.86 86.0071C1060.06 86.4071 1062.76 86.6071 1064.96 86.6071C1066.96 86.6071 1069.96 86.2571 1073.96 85.5571C1077.96 84.8571 1080.96 84.5071 1082.96 84.5071C1087.56 84.5071 1089.86 87.4071 1089.86 93.2071C1089.86 95.2071 1089.76 96.7071 1089.56 97.7071C1088.16 113.107 1087.46 134.907 1087.46 163.107Z"/>
</g>
<g fill="#000000" opacity="1" stroke="none"/>
</g>
<g id="Layer-2" vectornator:layerName="Layer 2">
<path d="M275.5 70.125C251.532 70.1585 232.091 92.8201 232.062 120.781L232.062 148.781C209.035 170.289 200.168 206.404 209.938 238.875C219.707 271.346 246.001 293.094 275.5 293.094C304.999 293.094 331.261 271.346 341.031 238.875C350.801 206.404 341.934 170.289 318.906 148.781L318.906 120.781C318.878 92.8201 299.468 70.1585 275.5 70.125ZM275.5 90.375C289.888 90.375 301.531 103.996 301.531 120.781L301.531 136.875C284.833 128.92 266.136 128.92 249.438 136.875L249.438 120.781C249.437 103.996 261.112 90.375 275.5 90.375ZM275.5 151.156C304.264 151.19 327.565 178.381 327.594 211.938C327.594 245.508 304.276 272.719 275.5 272.719C246.724 272.719 223.375 245.508 223.375 211.938C223.375 178.367 246.724 151.156 275.5 151.156Z" fill="#3e474a" fill-rule="nonzero" opacity="1" stroke="none"/>
<path d="M224.688 212.255C224.688 176.958 247.359 148.343 275.326 148.343C303.293 148.343 325.965 176.958 325.965 212.255C325.965 247.553 303.293 276.168 275.326 276.168C247.359 276.168 224.688 247.553 224.688 212.255Z" fill="#3e474a" fill-rule="nonzero" opacity="1" stroke="none"/>
</g>
<g id="Layer-5" vectornator:layerName="Layer 5">
<path d="M275.375 181.281C268.206 181.291 261.63 186.527 259.094 194.625C256.195 203.88 259.41 214.229 266.719 219.156L266.719 242.25C266.719 247.851 270.61 252.375 275.406 252.375C280.203 252.375 284.094 247.851 284.094 242.25L284.094 219.156C289.451 215.559 292.764 208.873 292.781 201.656C292.819 191.802 286.775 183.365 278.469 181.625C277.43 181.407 276.399 181.28 275.375 181.281Z" fill="#fefefe" fill-rule="nonzero" opacity="1" stroke="none"/>
</g>
<g id="Layer-3" vectornator:layerName="Layer 3">
<g fill="#fefefe" opacity="0" stroke="none">
<path clip-path="url(#TextBounds_3)" d="M235.93 240.588C231.73 240.188 228.346 239.521 225.78 238.588C223.213 237.655 221.296 236.821 220.03 236.088L223.83 226.288C225.963 227.288 228.463 228.205 231.33 229.038C234.196 229.871 237.23 230.288 240.43 230.288C244.163 230.288 246.763 229.805 248.23 228.838C249.696 227.871 250.43 226.355 250.43 224.288C250.43 223.088 250.146 222.055 249.58 221.188C249.013 220.321 248.18 219.538 247.08 218.838C245.98 218.138 244.63 217.505 243.03 216.938C241.43 216.371 239.63 215.721 237.63 214.988C235.696 214.321 233.796 213.555 231.93 212.688C230.063 211.821 228.396 210.771 226.93 209.538C225.463 208.305 224.28 206.805 223.38 205.038C222.48 203.271 222.03 201.088 222.03 198.488C222.03 196.621 222.28 194.821 222.78 193.088C223.28 191.355 224.08 189.755 225.18 188.288C226.28 186.821 227.73 185.538 229.53 184.438C231.33 183.338 233.53 182.488 236.13 181.888L236.13 172.188L247.53 172.188L247.53 181.388C250.596 181.655 253.313 182.121 255.68 182.788C258.046 183.455 259.896 184.055 261.23 184.588L258.43 194.888C256.496 194.088 254.213 193.371 251.58 192.738C248.946 192.105 246.23 191.788 243.43 191.788C240.23 191.788 238.013 192.355 236.78 193.488C235.546 194.621 234.93 195.955 234.93 197.488C234.93 198.555 235.146 199.438 235.58 200.138C236.013 200.838 236.68 201.455 237.58 201.988C238.48 202.521 239.563 203.038 240.83 203.538C242.096 204.038 243.596 204.588 245.33 205.188C247.93 206.188 250.33 207.238 252.53 208.338C254.73 209.438 256.63 210.705 258.23 212.138C259.83 213.571 261.08 215.255 261.98 217.188C262.88 219.121 263.33 221.388 263.33 223.988C263.33 225.788 263.063 227.571 262.53 229.338C261.996 231.105 261.113 232.738 259.88 234.238C258.646 235.738 257.013 237.038 254.98 238.138C252.946 239.238 250.396 240.021 247.33 240.488L247.33 251.188L235.93 251.188L235.93 240.588Z"/>
<path clip-path="url(#TextBounds_3)" d="M267.43 247.288L315.83 247.288L315.83 257.988L267.43 257.988L267.43 247.288Z"/>
</g>
</g>
<g id="Layer-4" vectornator:layerName="Layer 4" visibility="hidden">
<path clip-path="url(#TextBounds_4)" d="M267.431 247.282L315.831 247.282L315.831 257.982L267.431 257.982L267.431 247.282Z" fill="#44b354" opacity="1" stroke="none"/>
</g>
</svg>
